<svg xmlns="http://www.w3.org/2000/svg" viewBox="0 0 100 100" width="100" height="100">
  <!-- Documento -->
  <rect x="10" y="10" width="30" height="40" fill="none" stroke="black" stroke-width="2"/>
  <line x1="15" y1="20" x2="35" y2="20" stroke="black" stroke-width="1"/>
  <line x1="15" y1="25" x2="30" y2="25" stroke="black" stroke-width="1"/>
  <line x1="15" y1="30" x2="35" y2="30" stroke="black" stroke-width="1"/>
  <line x1="15" y1="35" x2="35" y2="35" stroke="black" stroke-width="1"/>
  
  <!-- Calculadora -->
  <rect x="45" y="20" width="30" height="30" fill="none" stroke="black" stroke-width="2"/>
  <!-- Botones de la calculadora -->
  <rect x="48" y="23" width="5" height="5" fill="black"/>
  <rect x="55" y="23" width="5" height="5" fill="black"/>
  <rect x="62" y="23" width="5" height="5" fill="black"/>
  <rect x="48" y="30" width="5" height="5" fill="black"/>
  <rect x="55" y="30" width="5" height="5" fill="black"/>
  <rect x="62" y="30" width="5" height="5" fill="black"/>
  <rect x="48" y="37" width="5" height="5" fill="black"/>
  <rect x="55" y="37" width="5" height="5" fill="black"/>
  <rect x="62" y="37" width="5" height="5" fill="black"/>

  <!-- Monedas -->
  <circle cx="20" cy="65" r="8" fill="none" stroke="black" stroke-width="2"/>
  <text x="16" y="68" font-size="8" fill="black">$</text>
  <circle cx="30" cy="70" r="8" fill="none" stroke="black" stroke-width="2"/>
  <text x="26" y="73" font-size="8" fill="black">$</text>
</svg>
